<?xml version="1.0" encoding="UTF-8" standalone="no"?>
<svg width="300" height="300" viewBox="0 0 300 300" version="1.1" xmlns="http://www.w3.org/2000/svg" xmlns:xlink="http://www.w3.org/1999/xlink" xml:space="preserve" xmlns:serif="http://www.serif.com/" style="fill-rule:evenodd;clip-rule:evenodd;stroke-linejoin:round;stroke-miterlimit:2;">
    <g transform="matrix(0.100402,0,0,-0.100402,-0.60241,299.996)">
        <g>
            <path d="M1940,2982C1826,2994 1131,2985 1068,2980C532,2936 161,2623 45,2116C17,1990 6,1819 6,1500C6,1082 22,930 87,740C192,431 431,192 740,87C930,22 1082,6 1500,6C1918,6 2070,22 2260,87C2569,192 2808,431 2913,740C2978,930 2994,1082 2994,1500C2994,1992 2965,2184 2855,2400C2684,2735 2366,2938 1940,2982ZM2155,2365C2256.38,2365 2365,2246.38 2365,2145L2365,855C2365,751.291 2248.71,635 2145,635L865,635C762.636,635 656,757.636 656,860C656,1107.96 632,2060 656,2140C689,2250 764,2328 870,2361C884,2365 1179,2368 1525,2367C1525,2367 1991.6,2365 2155,2365Z" style="fill:rgb(0,105,255);fill-rule:nonzero;"/>
            <path d="M873,1715C822,1664 780,1617 780,1612C780,1595 1054,1336 1113,1297C1184,1249 1286,1203 1348,1189C1424,1171 1577,1167 1629,1180C1812,1227 1904,1284 2093,1469L2241,1614L2143,1712C2089,1766 2042,1810 2039,1810C2035,1810 1985,1763 1927,1706C1751,1532 1690,1490 1573,1466C1515,1453 1495,1453 1440,1465C1331,1488 1278,1523 1124,1673C1046,1748 979,1810 974,1810C969,1809 923,1767 873,1715Z" style="fill:rgb(0,105,255);fill-rule:nonzero;"/>
        </g>
    </g>
</svg>
